<svg width="24" height="24" viewBox="0 0 24 24" fill="none" xmlns="http://www.w3.org/2000/svg">
<path d="M10.292 2.39601C10.416 2.52001 10.498 2.65001 10.55 2.74601C10.629 2.89101 10.688 3.04601 10.735 3.18601C10.825 3.45401 10.917 3.81101 11.022 4.21801L14.702 18.458L16.31 12.4L16.323 12.35L16.326 12.339C16.37 12.169 16.443 11.885 16.609 11.646C16.7599 11.4261 16.9666 11.2504 17.208 11.137C17.399 11.047 17.577 11.02 17.708 11.01C17.813 11 17.928 11.001 18.016 11.001H21C21.2652 11.001 21.5196 11.1064 21.7071 11.2939C21.8946 11.4814 22 11.7358 22 12.001C22 12.2662 21.8946 12.5206 21.7071 12.7081C21.5196 12.8957 21.2652 13.001 21 13.001H18.22L16.416 19.796C16.308 20.202 16.214 20.558 16.122 20.826C16.0711 20.9775 16.0083 21.1246 15.934 21.266C15.8259 21.4676 15.67 21.6396 15.48 21.767C15.2447 21.9201 14.9698 22.0011 14.6891 22.0001C14.4084 21.999 14.1341 21.9159 13.9 21.761C13.711 21.632 13.5565 21.4586 13.45 21.256C13.3767 21.1142 13.3148 20.9667 13.265 20.815C13.175 20.547 13.083 20.19 12.978 19.783L9.298 5.54301L7.69 11.6L7.677 11.65L7.674 11.661C7.63 11.831 7.556 12.115 7.391 12.354C7.24013 12.5739 7.03336 12.7496 6.792 12.863C6.601 12.953 6.423 12.98 6.292 12.99C6.187 13 6.072 12.999 5.984 12.999H3C2.73478 12.999 2.48043 12.8937 2.29289 12.7061C2.10536 12.5186 2 12.2642 2 11.999C2 11.7338 2.10536 11.4794 2.29289 11.2919C2.48043 11.1044 2.73478 10.999 3 10.999H5.78L7.584 4.20301C7.692 3.79801 7.786 3.44101 7.878 3.17501C7.926 3.03501 7.986 2.88001 8.066 2.73501C8.174 2.53307 8.32989 2.3607 8.52 2.23301C8.79052 2.05672 9.11259 1.97681 9.43414 2.00621C9.75569 2.0356 10.0579 2.17359 10.292 2.39601Z" fill="black"/>
</svg>
